<?xml version="1.0" encoding="UTF-8"?>
<svg xmlns="http://www.w3.org/2000/svg" xmlns:xlink="http://www.w3.org/1999/xlink" width="3003" height="3003" viewBox="0 0 3003 3003">
<path fill-rule="nonzero" fill="rgb(99.609375%, 99.609375%, 99.609375%)" fill-opacity="0" d="M 1.042969 0 C 0.765625 0 0.5 0.109375 0.304688 0.308594 C 0.109375 0.5 0 0.769531 0 1.039062 L 0 3001.042969 C 0 3001.617188 0.46875 3002.085938 1.042969 3002.085938 L 3001.039062 3002.085938 C 3001.320312 3002.085938 3001.589844 3001.976562 3001.78125 3001.78125 C 3001.980469 3001.585938 3002.089844 3001.320312 3002.089844 3001.042969 L 3002.089844 1.039062 C 3002.089844 0.46875 3001.621094 0 3001.039062 0 Z M 1.042969 0 "/>
<path fill-rule="nonzero" fill="rgb(0%, 0%, 0%)" fill-opacity="1" d="M 1303.460938 1150.988281 L 1303.460938 1151 C 1278.351562 1151.351562 1251.039062 1154.410156 1221.558594 1160.730469 C 985.777344 1211.25 865.695312 1278.449219 625.445312 1510.289062 C 496.007812 1635.191406 444.578125 1598.441406 421.609375 1556.488281 C 398.644531 1514.539062 404.699219 1468.148438 442.589844 1442.878906 C 504.671875 1401.5 509.996094 1489.199219 509.996094 1489.199219 C 522.78125 1343.078125 396.285156 1413.359375 396.285156 1413.359375 C 320.5 1455.460938 322.40625 1619.070312 451.035156 1712.289062 C 612.808594 1829.53125 841.085938 1803.800781 1032.121094 1767.03125 C 1207.179688 1733.339844 1416.398438 1627.460938 1507.941406 1522.851562 C 1515 1514.78125 1521.160156 1506.390625 1526.441406 1497.75 C 1531.710938 1506.371094 1537.789062 1514.800781 1544.828125 1522.851562 C 1636.378906 1627.46875 1845.601562 1733.339844 2020.648438 1767.03125 C 2211.699219 1803.789062 2439.859375 1829.53125 2601.628906 1712.289062 C 2730.25 1619.070312 2732.160156 1455.460938 2656.378906 1413.359375 C 2529.878906 1343.078125 2542.769531 1489.191406 2542.769531 1489.191406 C 2547.988281 1401.5 2610.070312 1442.878906 2610.070312 1442.878906 C 2647.96875 1468.148438 2654.128906 1514.539062 2631.171875 1556.488281 C 2608.210938 1598.441406 2544.449219 1696.640625 2436.601562 1552.660156 C 2238.460938 1288.140625 2066.921875 1211.210938 1831.101562 1160.691406 C 1664.289062 1124.941406 1569.21875 1194.839844 1526.339844 1253.519531 C 1491.019531 1205.230469 1420.429688 1149.269531 1303.460938 1150.960938 Z M 1303.460938 1150.988281 "/>
</svg>
