<?xml version="1.0" encoding="iso-8859-1"?>
<!-- Generator: Adobe Illustrator 19.0.0, SVG Export Plug-In . SVG Version: 6.00 Build 0)  -->
<svg version="1.1" id="Layer_1" xmlns="http://www.w3.org/2000/svg" xmlns:xlink="http://www.w3.org/1999/xlink" x="0px" y="0px"
	 viewBox="0 0 512.001 512.001" style="enable-background:new 0 0 512.001 512.001;" xml:space="preserve">
<path style="fill:#CCCCCC;" d="M103.183,190.519l-0.311,1.383v279.084H74.805v-288.67
	C84.034,185.564,93.551,188.353,103.183,190.519z"/>
<path style="fill:#FCD559;" d="M8.496,150.342c63.67,48.242,204.41,87.889,247.352-23.977
	c26.869,70.007,92.048,80.676,152.677,67.034c9.632-2.166,19.149-4.954,28.378-8.204c25.51-8.999,48.818-21.604,66.309-34.854
	c-17.456,0-31.501-6.072-44.417-15.451c-32.123-23.343-57.183-67.15-109.884-88.857c-33.863-13.942-58.6-8.711-75.468,1.037
	c-7.374,4.275-13.331,10.197-17.652,17.11c-4.655-7.386-11.165-13.677-19.219-18.055c-16.81-9.125-41.018-13.584-73.775-0.092
	c-52.701,21.707-77.773,65.514-109.896,88.857C39.986,144.27,25.941,150.342,8.496,150.342z"/>
<path style="fill:#E2B844;" d="M233.992,44.79c-3.618,1.175-16.172-5.618-42.654,4.113c-63.406,23.3-60.674,77.646-98.743,105.31
	c-14.16,10.278-29.45,17.202-48.035,18.182c-13.538-6.729-25.798-14.276-36.064-22.053c17.444,0,31.489-6.072,44.405-15.451
	c32.123-23.343,57.195-67.15,109.896-88.857C193.918,33.222,217.319,36.598,233.992,44.79z"/>
<path d="M511.55,147.933c-1.182-3.519-4.48-5.889-8.191-5.889c-29.16,0-47.718-19.163-71.213-43.425
	c-9.799-10.119-19.933-20.582-31.784-30.549c-3.654-3.073-9.105-2.603-12.175,1.051c-3.072,3.652-2.602,9.103,1.051,12.175
	c11.176,9.4,20.996,19.54,30.494,29.346c18.68,19.289,36.561,37.754,60.47,45.215c-13.988,8.388-29.78,15.802-46.021,21.531
	c-9.185,3.234-18.406,5.9-27.406,7.924c-95.337,21.45-130.335-29.45-142.711-61.7c-1.282-3.34-4.489-5.545-8.068-5.545
	c-3.578,0-6.785,2.205-8.068,5.544c-12.408,32.321-34.287,53.157-65.03,61.93c-32.116,9.162-66.622,3.242-89.915-3.338
	c-21.39-6.043-42.795-15.315-61.186-26.346c23.906-7.46,41.788-25.924,60.468-45.212c20.447-21.112,41.589-42.942,73.971-56.276
	c25.249-10.4,47.576-10.501,66.356-0.305c6.505,3.536,12.05,8.747,16.035,15.071c1.583,2.511,4.343,4.034,7.311,4.034
	c0.005,0,0.01,0,0.016,0c2.974-0.006,5.736-1.539,7.312-4.061c3.718-5.949,8.65-10.731,14.647-14.209
	c19.087-11.029,41.917-11.207,67.855-0.528c5.358,2.206,10.667,4.767,15.782,7.611c4.171,2.318,9.432,0.819,11.752-3.352
	c2.32-4.171,0.819-9.433-3.352-11.752c-5.701-3.171-11.623-6.027-17.602-8.489c-38.808-15.976-66.6-7.978-83.092,1.552
	c-4.915,2.849-9.41,6.417-13.326,10.551c-4.384-4.633-9.479-8.565-15.087-11.614c-23.581-12.801-50.897-12.966-81.188-0.489
	c-35.71,14.704-59.135,38.892-79.804,60.232c-23.497,24.261-42.055,43.423-71.208,43.423c-3.712,0-7.009,2.37-8.191,5.889
	c-1.182,3.519,0.014,7.398,2.973,9.64c17.362,13.156,39.21,25.107,62.885,34.018v282.617c0,4.772,3.869,8.641,8.641,8.641h28.067
	c4.772,0,8.641-3.869,8.641-8.641V222.926c0-4.772-3.869-8.641-8.641-8.641s-8.641,3.869-8.641,8.641v242.64H83.592v-268.12
	c20.894,6.288,42.664,10.016,63.653,10.016c13.975,0,27.606-1.653,40.395-5.301c30.29-8.643,53.223-27.06,68.381-54.858
	c21.714,39.424,59.692,60.286,108.77,60.284c14.35-0.001,29.66-1.786,45.777-5.412c9.655-2.172,19.532-5.026,29.357-8.486
	c25.317-8.929,49.699-21.756,68.652-36.115C511.535,155.331,512.733,151.45,511.55,147.933z"/>
<g>
</g>
<g>
</g>
<g>
</g>
<g>
</g>
<g>
</g>
<g>
</g>
<g>
</g>
<g>
</g>
<g>
</g>
<g>
</g>
<g>
</g>
<g>
</g>
<g>
</g>
<g>
</g>
<g>
</g>
</svg>
